<svg id="Layer_1" data-name="Layer 1" xmlns="http://www.w3.org/2000/svg" xmlns:xlink="http://www.w3.org/1999/xlink" viewBox="0 0 250 250"><defs><style>.cls-1,.cls-11,.cls-23,.cls-24,.cls-26,.cls-4,.cls-7,.cls-8,.cls-9{fill:none;}.cls-16,.cls-2,.cls-25,.cls-29,.cls-6{fill:#fff;}.cls-2{opacity:0.7;}.cls-14,.cls-18,.cls-2,.cls-25{isolation:isolate;}.cls-3,.cls-5{fill:#417bfd;}.cls-10,.cls-21,.cls-22,.cls-23,.cls-24,.cls-26,.cls-27,.cls-28,.cls-29,.cls-4,.cls-5,.cls-6,.cls-7,.cls-8,.cls-9{stroke:#263238;}.cls-10,.cls-11,.cls-21,.cls-22,.cls-23,.cls-24,.cls-26,.cls-27,.cls-28,.cls-29,.cls-4,.cls-5,.cls-6,.cls-7,.cls-8,.cls-9{stroke-linecap:round;stroke-linejoin:round;}.cls-10,.cls-11,.cls-21,.cls-22,.cls-23,.cls-24,.cls-4,.cls-5,.cls-6,.cls-8,.cls-9{stroke-width:0.55px;}.cls-7{stroke-width:1.1px;}.cls-8{stroke-dasharray:0.55 1.65;}.cls-9{stroke-dasharray:0.55 1.65;}.cls-10,.cls-12,.cls-28{fill:#263238;}.cls-11{stroke:#fff;}.cls-13{clip-path:url(#clip-path);}.cls-14,.cls-18{fill-opacity:0.7;}.cls-14{opacity:0.3;}.cls-15{clip-path:url(#clip-path-2);}.cls-17{clip-path:url(#clip-path-3);}.cls-18{opacity:0.2;}.cls-19{clip-path:url(#clip-path-4);}.cls-20{clip-path:url(#clip-path-5);}.cls-21{fill:#757575;}.cls-22{fill:#999;}.cls-23{stroke-dasharray:0.54 1.62;}.cls-24{stroke-dasharray:0.55 1.66;}.cls-25{opacity:0.71;}.cls-26,.cls-27,.cls-28,.cls-29{stroke-width:0.37px;}.cls-27{fill:#447dfd;}</style><clipPath id="clip-path"><path class="cls-1" d="M207.35,217.89c-3.74,6.07-22.69,9-33,8.68s-40.11-14.35-42.13-17.35c-1.87-2.76-6.47-11.9.62-17.42a13.19,13.19,0,0,1,1.9-1.24c4.85-2.63,37.11,5.66,37.11,5.66s2-1.27,2.73-1.17c2.25.28,3.86,2.1,8.41,3.4,3.18.91,11.87-2.59,17.42.42a7.82,7.82,0,0,1,1.69,1.22C207.26,205.05,211.08,211.81,207.35,217.89Z"/></clipPath><clipPath id="clip-path-2"><path class="cls-1" d="M169.14,223.17l9.67,7.58a111.64,111.64,0,0,0,13.86-2.07h0c4.58-1.06,8.58-2.58,8.79-4.66.34-3.17-3.05-4-7.07-3.92a22.81,22.81,0,0,0-2.3.16c-6.44.69-14.63-2.86-14.63-2.86Z"/></clipPath><clipPath id="clip-path-3"><path class="cls-1" d="M178.15,226.16c-1.74.28.17,3.86,2.53,2.76S179.89,225.87,178.15,226.16Z"/></clipPath><clipPath id="clip-path-4"><path class="cls-1" d="M192.67,228.67c4.58-1.06,8.58-2.57,8.79-4.66.34-3.17-3.05-4-7.07-3.91C194.21,220.27,190.31,224,192.67,228.67Z"/></clipPath><clipPath id="clip-path-5"><path class="cls-1" d="M163.2,223.46,152.79,230a111.11,111.11,0,0,1-13.56-3.52h0c-4.44-1.53-8.28-3.46-8.28-5.56,0-3.19,3.46-3.69,7.45-3.15.74.1,1.51.24,2.27.4,6.33,1.36,14.84-1.32,14.84-1.32Z"/></clipPath></defs><g id="freepik--background-simple--inject-71"><path class="cls-2" d="M23.36,79.72S8,119.45,29.59,159.45s66.14,61.13,101.78,79.2,72.64,9.27,90.22-20.33S215.06,167.6,215,125.4s6.32-53.37-16.55-89S119.55-7.17,77.15,19.27,23.36,79.72,23.36,79.72Z"/><path class="cls-3" d="M24,225.69H140.47c.47-.75.94-1.5,1.43-2.23,12.53-19.08,32.6-32.69,54.52-39.07,9.83-2.86,20.46-4.56,28.35-11.07,8.12-6.69,11.85-17.37,13.46-27.77,2-12.59.9-26.71-7.64-36.16-10-11.1-26.85-12.34-39.93-19.62-22.51-12.52-31.23-41-51.7-56.66-12.94-9.87-30.4-13.7-46-11.53-22.18,3.07-43,17.93-49.3,39.72a55.1,55.1,0,0,0-1.9,19.54c1,13,3.8,26.15,1.16,38.92C40,133.82,30.82,145.69,25.36,159c-6.81,16.55-7.73,35.09-4.84,52.73A90.55,90.55,0,0,0,24,225.69Z"/><path class="cls-2" d="M24.46,225.28a7.19,7.19,0,0,0,1.66,1.34c3.84,2.23,15.18.29,19.72.32q10.81.08,21.61-.07c13.23-.18,26.43-1,39.65-1.28,4.57-.09,31.56,3,33.37.1.47-.75.94-1.5,1.43-2.23,12.53-19.08,32.6-32.69,54.52-39.07,9.83-2.86,20.46-4.56,28.35-11.07,8.12-6.69,11.85-17.37,13.46-27.77,2-12.59.9-26.71-7.64-36.16-10-11.1-26.85-12.34-39.93-19.62-22.51-12.52-31.23-41-51.7-56.66-12.94-9.87-30.4-13.7-46-11.53-22.18,3.07-43,17.93-49.3,39.72a55.1,55.1,0,0,0-1.9,19.54c1,13,3.8,26.15,1.16,38.92C40,133.82,30.82,145.69,25.36,159a91.49,91.49,0,0,0-6.57,34.76C18.79,201.14,18.74,219.09,24.46,225.28Z"/></g><g id="freepik--Graphics--inject-71"><path class="cls-4" d="M139.81,49.21V40.54L133.32,40a17.81,17.81,0,0,0-1.6-3.89l4.19-5L129.79,25l-5,4.19A17.41,17.41,0,0,0,121,27.59l-.55-6.48h-8.74l-.55,6.48a17.61,17.61,0,0,0-3.86,1.61l-5-4.19-6.12,6.13,4.19,5A17.81,17.81,0,0,0,98.76,40l-6.49.55v8.67l6.49.55a18.07,18.07,0,0,0,1.6,3.86l-4.19,5,6.12,6.13,5-4.19a17.61,17.61,0,0,0,3.86,1.61l.55,6.48h8.67l.55-6.48a17.84,17.84,0,0,0,3.89-1.61l5,4.19,6.13-6.13-4.19-5a18.07,18.07,0,0,0,1.6-3.86ZM116,54.94A10.07,10.07,0,1,1,126.1,44.87,10.06,10.06,0,0,1,116,54.94h0Z"/><path class="cls-4" d="M232.88,133.87v-4.15l-3.11-.27a8.47,8.47,0,0,0-.77-1.87l2-2.39-2.92-2.93-2.39,2a8.2,8.2,0,0,0-1.86-.77l-.27-3.11h-4.15l-.27,3.11a8.2,8.2,0,0,0-1.86.77l-2.39-2L212,125.19l2,2.39a8.47,8.47,0,0,0-.77,1.87l-3.11.27v4.15l3.11.27A8.39,8.39,0,0,0,214,136l-2,2.37,2.94,2.93,2.39-2a8.36,8.36,0,0,0,1.86.76l.27,3.11h4.15l.27-3.11a9,9,0,0,0,1.87-.76l2.38,2,2.94-2.93L229,136a8.59,8.59,0,0,0,.77-1.86Zm-11.4,2.76a4.83,4.83,0,1,1,4.82-4.84h0a4.83,4.83,0,0,1-4.83,4.82Z"/></g><g id="freepik--Window--inject-71"><path class="cls-5" d="M15.39,47.28H154.12a2.34,2.34,0,0,1,2.34,2.34v6.54H13.05V49.62A2.34,2.34,0,0,1,15.39,47.28Z"/><rect class="cls-6" x="19.33" y="57.8" width="144.94" height="102"/><path class="cls-6" d="M166.49,51.72a2.21,2.21,0,1,1-2.21-2.21A2.21,2.21,0,0,1,166.49,51.72Z"/><path class="cls-6" d="M158.68,51.72a2.21,2.21,0,1,1-2.21-2.21A2.21,2.21,0,0,1,158.68,51.72Z"/><path class="cls-6" d="M150.85,51.72a2.21,2.21,0,1,1-2.21-2.21A2.21,2.21,0,0,1,150.85,51.72Z"/><line class="cls-7" x1="159.88" y1="62.18" x2="154.14" y2="62.18"/><line class="cls-7" x1="159.88" y1="64.5" x2="154.14" y2="64.5"/><line class="cls-7" x1="159.88" y1="66.83" x2="154.14" y2="66.83"/><line class="cls-7" x1="29.36" y1="122.36" x2="72.8" y2="122.36"/><line class="cls-7" x1="29.36" y1="125.78" x2="72.8" y2="125.78"/><line class="cls-7" x1="29.36" y1="129.27" x2="63.61" y2="129.27"/><line class="cls-4" x1="121.47" y1="58.95" x2="121.47" y2="59.22"/><line class="cls-8" x1="121.47" y1="60.88" x2="121.47" y2="157.01"/><line class="cls-4" x1="121.47" y1="157.83" x2="121.47" y2="158.11"/><line class="cls-4" x1="21.07" y1="136.92" x2="21.35" y2="136.92"/><line class="cls-9" x1="23" y1="136.92" x2="160.95" y2="136.92"/><line class="cls-4" x1="161.78" y1="136.92" x2="162.05" y2="136.92"/><rect class="cls-6" x="120.52" y="135.97" width="1.9" height="1.9"/><line class="cls-4" x1="113.88" y1="118.64" x2="88.46" y2="118.64"/><path class="cls-4" d="M114.37,130.39s0-11.81-13.2-11.81S88,130.39,88,130.39"/><circle class="cls-5" cx="114.37" cy="130.39" r="1.11"/><path class="cls-5" d="M86.85,130.39a1.1,1.1,0,1,1,1.1,1.1A1.1,1.1,0,0,1,86.85,130.39Z"/><rect class="cls-5" x="113.39" y="117.6" width="1.95" height="1.95"/><rect class="cls-5" x="100.19" y="117.6" width="1.95" height="1.95"/><rect class="cls-5" x="87" y="117.6" width="1.95" height="1.95"/><path class="cls-5" d="M45.15,83.13V79.22L42.23,79a7.87,7.87,0,0,0-.72-1.75L43.4,75l-2.76-2.76L38.39,74.1a7.87,7.87,0,0,0-1.75-.72l-.25-2.92h-3.9l-.25,2.92a7.87,7.87,0,0,0-1.75.72l-2.25-1.88L25.48,75l1.89,2.24A7.87,7.87,0,0,0,26.65,79l-2.93.25v3.91l2.93.24a8.14,8.14,0,0,0,.72,1.76l-1.89,2.24,2.76,2.76,2.25-1.89a7.79,7.79,0,0,0,1.74.72l.25,2.93h3.9L36.63,89a7.87,7.87,0,0,0,1.75-.72l2.25,1.89,2.76-2.76L41.5,85.13a8.14,8.14,0,0,0,.72-1.76ZM34.43,85.71A4.54,4.54,0,1,1,39,81.17a4.53,4.53,0,0,1-4.54,4.54Z"/><path class="cls-5" d="M58.42,91.88V89.21l-2-.18a5.22,5.22,0,0,0-.49-1.2l1.29-1.53-1.89-1.89L53.79,85.7a5.22,5.22,0,0,0-1.2-.49l-.17-2H49.75l-.18,2a6,6,0,0,0-1.2.5l-1.53-1.29L45,86.29l1.3,1.54a4.62,4.62,0,0,0-.5,1.19l-2,.18v2.67l2,.17a4.84,4.84,0,0,0,.5,1.2L45,94.78l1.89,1.89,1.53-1.29a6,6,0,0,0,1.2.5l.18,2h2.67l.17-2a5.74,5.74,0,0,0,1.2-.5l1.53,1.29,1.89-1.89L56,93.24a5.15,5.15,0,0,0,.49-1.19Zm-7.34,1.76a3.11,3.11,0,1,1,3.1-3.11h0A3.1,3.1,0,0,1,51.08,93.64Z"/><line class="cls-7" x1="126.92" y1="143.41" x2="148.29" y2="143.41"/><line class="cls-7" x1="126.92" y1="146.84" x2="148.29" y2="146.84"/><line class="cls-7" x1="126.92" y1="150.33" x2="139.11" y2="150.33"/><path class="cls-5" d="M98.77,151.75H87.52A2.77,2.77,0,0,1,84.76,149h0a2.77,2.77,0,0,1,2.76-2.76H98.77a2.77,2.77,0,0,1,2.76,2.76h0A2.77,2.77,0,0,1,98.77,151.75Z"/><path class="cls-5" d="M119.73,151.75H108.49a2.76,2.76,0,0,1-2.76-2.76h0a2.76,2.76,0,0,1,2.76-2.76h11.24a2.76,2.76,0,0,1,2.76,2.76h0A2.76,2.76,0,0,1,119.73,151.75Z"/><rect class="cls-6" x="128.49" y="92.56" width="23.86" height="23.86"/><line class="cls-4" x1="128.49" y1="92.56" x2="152.34" y2="116.42"/><line class="cls-4" x1="152.34" y1="92.56" x2="128.49" y2="116.42"/><polygon class="cls-6" points="137.84 65.47 137.84 71.04 135.39 73.5 129.82 73.5 129.82 65.47 137.84 65.47"/><polygon class="cls-6" points="137.84 71.04 135.39 73.5 135.39 71.04 137.84 71.04"/><polygon class="cls-6" points="52.53 108.53 52.53 114.09 50.07 116.55 44.51 116.55 44.51 108.53 52.53 108.53"/><polygon class="cls-6" points="52.53 114.09 50.07 116.55 50.07 114.09 52.53 114.09"/><polygon class="cls-6" points="22.22 142.83 22.22 148.39 19.76 150.85 14.19 150.85 14.19 142.83 22.22 142.83"/><polygon class="cls-6" points="22.22 148.39 19.76 150.85 19.76 148.39 22.22 148.39"/></g><g id="freepik--Screens--inject-71"><rect class="cls-10" x="148.65" y="78.39" width="29.61" height="18.55"/><rect class="cls-5" x="148.65" y="78.39" width="29.61" height="2.82"/><line class="cls-11" x1="151.66" y1="83.58" x2="159.23" y2="83.58"/><line class="cls-11" x1="155.45" y1="85.7" x2="168.55" y2="85.7"/><line class="cls-11" x1="153.78" y1="87.67" x2="157.63" y2="87.67"/><line class="cls-11" x1="155.45" y1="89.99" x2="164.27" y2="89.99"/><line class="cls-11" x1="151.66" y1="92.1" x2="159.23" y2="92.1"/><rect class="cls-10" x="37.3" y="153.04" width="29.61" height="18.55"/><rect class="cls-5" x="37.3" y="153.04" width="29.61" height="2.82"/><line class="cls-11" x1="40.33" y1="158.24" x2="47.89" y2="158.24"/><line class="cls-11" x1="44.1" y1="160.35" x2="57.2" y2="160.35"/><line class="cls-11" x1="42.43" y1="162.32" x2="46.29" y2="162.32"/><line class="cls-11" x1="44.1" y1="164.64" x2="52.93" y2="164.64"/><line class="cls-11" x1="40.33" y1="166.76" x2="47.89" y2="166.76"/></g><g id="freepik--speech-bubble--inject-71"><path class="cls-5" d="M78,18.64H50.82a1.21,1.21,0,0,0-1.2,1.21V32.54a1.19,1.19,0,0,0,1.2,1.19H63l1.39,5,1.4-5H78a1.19,1.19,0,0,0,1.2-1.19V19.85A1.21,1.21,0,0,0,78,18.64Z"/><line class="cls-7" x1="54.13" y1="22.28" x2="74.68" y2="22.28"/><line class="cls-7" x1="54.13" y1="24.88" x2="74.68" y2="24.88"/><line class="cls-7" x1="54.13" y1="27.48" x2="74.68" y2="27.48"/><line class="cls-7" x1="54.13" y1="30.09" x2="69.62" y2="30.09"/></g><g id="freepik--Character--inject-71"><path class="cls-6" d="M122.64,107.12c-2.92.25-6.62-3.24-6.62-3.24a.65.65,0,0,1-.93,0,.53.53,0,0,1-.12-.14c-.47-.69-2.53-2.27-2.64-3.64s2.31-3.59,2.31-3.59c-1.87.51-2.07-.59-2.07-.59s3.15-2.59,4.25-2.67a13.24,13.24,0,0,1,4.12,2.51c1.9,1.53,5.47,6.91,5.47,6.91s12.05,8.76,15.1,11a74.15,74.15,0,0,1,8.78,8.2s16,7.22,20.42,11.18l-6,14.14s-14.55-9.75-16-12.22-2.91-1-4.37-2.6-2.85-3.47-2.85-3.47a24.56,24.56,0,0,1-6.94-5c-3.4-3.49-6.4-8.83-8.28-12A19.64,19.64,0,0,0,122.64,107.12Z"/><path class="cls-6" d="M123.53,105.05s-4.35-1-4.72-3.91a5.51,5.51,0,0,0-.93-2s-4-.19-3.8-1.84l5.41-.48a9.4,9.4,0,0,1,4.7,4"/><path class="cls-4" d="M116,103.88a1.76,1.76,0,0,0,.18-1.17s1.19-.22,1.06-1.28c0,0,1.77-.21.63-2.3"/><path class="cls-4" d="M117.25,101.43s-2.38-1.76-2.64-2.56"/><path class="cls-4" d="M116.19,102.71s-2.53-1.55-2.57-2.45"/><path class="cls-4" d="M116.77,94.78a3.82,3.82,0,0,1-2.14,1.74"/><path class="cls-4" d="M116.37,95.34a6.65,6.65,0,0,1,1.19.79"/><path class="cls-12" d="M208.84,144.2a130.32,130.32,0,0,0-19.26-6.43c-9.69-2.27-25.38-4.29-25.38-4.29s4.32,44,3.18,46.67-7.95,11.55-7.95,11.55,36.9,14.39,43.33,15.61,3.08-21.1,3.08-21.1S212.64,157.83,208.84,144.2Z"/><path class="cls-6" d="M195.6,139.48s.87,1.65-1.43,2.52c-6,2.2-12.34.26-11.67-2.08.26-.9,1.74,0,1.66-3.31a4.18,4.18,0,0,0-.4-1.47,14.47,14.47,0,0,0-1.52-2.54,31.47,31.47,0,0,0-2.05-2.56s9.49-6.07,16.52,0C196.7,130,194.09,131.34,195.6,139.48Z"/><path class="cls-3" d="M207.35,217.89c-3.74,6.07-22.69,9-33,8.68s-40.11-14.35-42.13-17.35c-1.87-2.76-6.47-11.9.62-17.42a13.19,13.19,0,0,1,1.9-1.24c4.85-2.63,37.11,5.66,37.11,5.66s2-1.27,2.73-1.17c2.25.28,3.86,2.1,8.41,3.4,3.18.91,11.87-2.59,17.42.42a7.82,7.82,0,0,1,1.69,1.22C207.26,205.05,211.08,211.81,207.35,217.89Z"/><g class="cls-13"><path class="cls-14" d="M200.38,198.87a25.29,25.29,0,0,0-14.3,2.9c-4.2,2.48-24,12-24,12a11.22,11.22,0,0,1,1.15-3.09c-1.87-1.66-6.74-3-6.74-3-3.78-3.23-18.76-12.86-23.65-16a13.19,13.19,0,0,1,1.9-1.24c4.85-2.63,37.11,5.66,37.11,5.66s2-1.27,2.73-1.17c2.25.28,3.86,2.1,8.41,3.4C186.16,199.36,194.83,195.86,200.38,198.87Z"/></g><path class="cls-4" d="M207.35,217.89c-3.74,6.07-22.69,9-33,8.68s-40.11-14.35-42.13-17.35c-1.87-2.76-6.47-11.9.62-17.42a13.19,13.19,0,0,1,1.9-1.24c4.85-2.63,37.11,5.66,37.11,5.66s2-1.27,2.73-1.17c2.25.28,3.86,2.1,8.41,3.4,3.18.91,11.87-2.59,17.42.42a7.82,7.82,0,0,1,1.69,1.22C207.26,205.05,211.08,211.81,207.35,217.89Z"/><path class="cls-6" d="M201.53,223.39l.48,2.08s-1.27,3.59-6.85,4.19-8.88,1.82-11.59,2a22.25,22.25,0,0,1-4.24-.07l-.55-.82Z"/><path class="cls-12" d="M169.14,223.17l9.67,7.58a111.64,111.64,0,0,0,13.86-2.07h0c4.58-1.06,8.58-2.58,8.79-4.66.34-3.17-3.05-4-7.07-3.92a22.81,22.81,0,0,0-2.3.16c-6.44.69-14.63-2.86-14.63-2.86Z"/><g class="cls-15"><path class="cls-14" d="M201.47,223.94a29.22,29.22,0,0,0-5.38,2.65s-9,4.62-22.77-.14l-4.18-3.28,8.32-5.78s8.18,3.56,14.63,2.86c.78-.08,1.55-.13,2.3-.15C198.38,220,201.74,220.83,201.47,223.94Z"/></g><path class="cls-4" d="M169.14,223.17l9.67,7.58a111.64,111.64,0,0,0,13.86-2.07h0c4.58-1.06,8.58-2.58,8.79-4.66.34-3.17-3.05-4-7.07-3.92a22.81,22.81,0,0,0-2.3.16c-6.44.69-14.63-2.86-14.63-2.86Z"/><path class="cls-16" d="M178.15,226.16c-1.74.28.17,3.86,2.53,2.76S179.89,225.87,178.15,226.16Z"/><g class="cls-17"><path class="cls-18" d="M181.42,228.35q-1.89-.24-3.75-.66c-.34-.7-.26-1.42.48-1.53C179.61,225.91,182.07,227.27,181.42,228.35Z"/></g><path class="cls-4" d="M178.15,226.16c-1.74.28.17,3.86,2.53,2.76S179.89,225.87,178.15,226.16Z"/><path class="cls-16" d="M192.67,228.67c4.58-1.06,8.58-2.57,8.79-4.66.34-3.17-3.05-4-7.07-3.91C194.21,220.27,190.31,224,192.67,228.67Z"/><g class="cls-19"><path class="cls-14" d="M201.47,223.94a29.22,29.22,0,0,0-5.38,2.65,17.86,17.86,0,0,1-3.78,1.26c-1.54-4.25,1.91-7.59,2.08-7.75C198.38,220,201.74,220.83,201.47,223.94Z"/></g><path class="cls-4" d="M192.67,228.67c4.58-1.06,8.58-2.57,8.79-4.66.34-3.17-3.05-4-7.07-3.91C194.21,220.27,190.31,224,192.67,228.67Z"/><path class="cls-6" d="M189.4,224.74h0a.49.49,0,0,0,.5-.45h0a6.42,6.42,0,0,1,1.65-3.63.48.48,0,0,0,0-.68h0a.48.48,0,0,0-.67,0,7.41,7.41,0,0,0-1.92,4.26A.48.48,0,0,0,189.4,224.74Z"/><path class="cls-6" d="M187.49,224.87h0a.48.48,0,0,0,.48-.47h0a7.08,7.08,0,0,1,1.47-3.79.48.48,0,1,0-.69-.67.18.18,0,0,0,0,.07,7.89,7.89,0,0,0-1.68,4.37A.48.48,0,0,0,187.49,224.87Z"/><path class="cls-6" d="M185.2,224.61h0a.47.47,0,0,0,.52-.42h0a11,11,0,0,1,1.58-3.86.48.48,0,0,0-.13-.67.49.49,0,0,0-.66.13,11.22,11.22,0,0,0-1.75,4.29.48.48,0,0,0,.41.54Z"/><path class="cls-6" d="M183,224.39h.13a.47.47,0,0,0,.39-.55h0c-.33-2,1.55-3.76,1.57-3.78a.49.49,0,0,0-.11-.67.49.49,0,0,0-.51,0c-.09.08-2.29,2.1-1.87,4.66A.49.49,0,0,0,183,224.39Z"/><path class="cls-6" d="M180.68,223.82a.43.43,0,0,0,.16,0,.48.48,0,0,0,.36-.55c-.42-1.81,1.37-3.87,1.39-3.87a.48.48,0,0,0-.72-.63h0c-.09.1-2.13,2.43-1.61,4.73A.49.49,0,0,0,180.68,223.82Z"/><path class="cls-6" d="M131,220.28l-.69,2s.89,3.71,6.37,4.88,8.64,2.76,11.29,3.19a23,23,0,0,0,4.23.37l.63-.75Z"/><path class="cls-12" d="M163.2,223.46,152.79,230a111.11,111.11,0,0,1-13.56-3.52h0c-4.44-1.53-8.28-3.46-8.28-5.56,0-3.19,3.46-3.69,7.45-3.15.74.1,1.51.24,2.27.4,6.33,1.36,14.84-1.32,14.84-1.32Z"/><g class="cls-20"><path class="cls-14" d="M163.2,223.46l-6.12,3.86a24.72,24.72,0,0,1-12.43-8.75,41.86,41.86,0,0,0,10.88-1.71Z"/></g><path class="cls-4" d="M163.2,223.46,152.79,230a111.11,111.11,0,0,1-13.56-3.52h0c-4.44-1.53-8.28-3.46-8.28-5.56,0-3.19,3.46-3.69,7.45-3.15.74.1,1.51.24,2.27.4,6.33,1.36,14.84-1.32,14.84-1.32Z"/><path class="cls-6" d="M139.23,226.47c-4.44-1.54-8.28-3.47-8.28-5.57,0-3.18,3.46-3.69,7.45-3.15C138.58,217.94,142.06,222.11,139.23,226.47Z"/><path class="cls-6" d="M142.89,222.9h0a.49.49,0,0,1-.45-.51,6.54,6.54,0,0,0-1.25-3.79.47.47,0,0,1,0-.67.48.48,0,0,1,.68,0l.06.08a7.42,7.42,0,0,1,1.46,4.42A.48.48,0,0,1,142.89,222.9Z"/><path class="cls-6" d="M144.78,223.21h-.05a.47.47,0,0,1-.43-.52,7,7,0,0,0-1.06-3.91.49.49,0,0,1,.8-.55,7.93,7.93,0,0,1,1.21,4.52A.47.47,0,0,1,144.78,223.21Z"/><path class="cls-6" d="M147.08,223.21h0a.48.48,0,0,1-.47-.48,10.27,10.27,0,0,0-1.18-4,.49.49,0,0,1,.21-.65.47.47,0,0,1,.64.21,11.06,11.06,0,0,1,1.29,4.44A.48.48,0,0,1,147.08,223.21Z"/><path class="cls-6" d="M149.26,223.21h-.13a.48.48,0,0,1-.33-.59c.55-2-1.14-3.91-1.16-3.93a.49.49,0,0,1,0-.68.48.48,0,0,1,.68,0,.12.12,0,0,1,0,.05c.09.1,2.07,2.34,1.37,4.83A.48.48,0,0,1,149.26,223.21Z"/><path class="cls-6" d="M151.66,222.9a.41.41,0,0,1-.16,0,.47.47,0,0,1-.3-.59v0c.6-1.75-1-4-1-4a.48.48,0,0,1,.72-.64l.06.09c.08.11,1.86,2.64,1.11,4.87A.51.51,0,0,1,151.66,222.9Z"/><path class="cls-6" d="M153.93,225.48c1.7.47-.56,3.81-2.81,2.49S152.23,225,153.93,225.48Z"/><path class="cls-5" d="M134.25,207.76c2.56,3.58,10.13,7.54,17.66,10.8a35,35,0,0,0,4.73,6.18c4.65,4.78,6.54,2.11,6.54,2.11s2.93-.33,7.26-.92a2.09,2.09,0,0,0,2.21,1.23,9.07,9.07,0,0,0,2.88-2c10.94-1.66,25.78-4.42,29.79-7.63"/><path class="cls-4" d="M201.05,200.94c-1.89-2.08-3.78-2.17-7.75-1.89,0,0-10.37,3.31-17.6,7.66a189.2,189.2,0,0,1-17.79,9s-3.21-.94-5.45,0c0,0-1.57.12-.52,2.86"/><path class="cls-4" d="M205.86,213.37s.06,3.21-4.49,5.43"/><path class="cls-4" d="M155.72,200s7.18,5.19,8.62,8.61a28.47,28.47,0,0,1,4.07,2.1"/><path class="cls-4" d="M164.85,204.31a8.24,8.24,0,0,1,.26,4.64"/><path class="cls-4" d="M163.2,200.94a13.31,13.31,0,0,1,1,1.8"/><path class="cls-4" d="M173.42,200.47a19.67,19.67,0,0,1,3,5.81"/><path class="cls-4" d="M186.79,219.87a21.71,21.71,0,0,0,2.66-.33"/><path class="cls-4" d="M164.27,217.57a127.68,127.68,0,0,0,20.63,2.36"/><path class="cls-6" d="M212.82,168.92s-1.3,22.62-2.83,23.91-3.94,1.7-8.5,2.08-24.75,1.62-24.75,1.62l-2.17-6.48s10.73-1.11,15.49-2.84a80.49,80.49,0,0,1,11-2.91,78.66,78.66,0,0,1-.9-8.13V164.65"/><path class="cls-12" d="M208.84,144.2c4.92,3,6.37,10,4.67,25a1.59,1.59,0,0,1-.69,2.65s-8-3-11.78-.93-2.76-2.87-2.76-2.87-1.54-13.75,1.87-16.23"/><path class="cls-11" d="M199.7,149.69s-4.73,4.92-.56,17.34a21.75,21.75,0,0,0-.55,3.09c0,.84,1.15,1.27,1.15,1.27"/><path class="cls-11" d="M194.17,158s.34,6.07,4.1,8.7"/><path class="cls-11" d="M195.38,143.93s-7.33,2.81-13.16-.31c-3.46-1.84-2-4.8-2-4.8"/><path class="cls-21" d="M142.65,201h39.92a10.51,10.51,0,0,0,2.67-.34l7.87-2.07a.5.5,0,0,0,.38-.49h0a.51.51,0,0,0-.51-.51H141a.5.5,0,0,0-.5.51v.75a2.15,2.15,0,0,0,2.15,2.15Z"/><path class="cls-22" d="M138.71,199h40a1,1,0,0,0,1-.91.8.8,0,0,0-.06-.37l-7.42-28.87a1.75,1.75,0,0,0-1.6-1.29h-40a1,1,0,0,0-1,.92.8.8,0,0,0,.06.37l7.42,28.87A1.76,1.76,0,0,0,138.71,199Z"/><line class="cls-4" x1="132.02" y1="168.56" x2="131.27" y2="168.56"/><line class="cls-4" x1="137.89" y1="168.56" x2="133.98" y2="168.56"/><path class="cls-4" d="M177.76,195.32l-6.55-25.48a1.77,1.77,0,0,0-1.6-1.28H138.77"/><line class="cls-4" x1="178.33" y1="197.54" x2="178.16" y2="196.9"/><path class="cls-6" d="M150.74,184a4.26,4.26,0,0,0,.15.69,2.85,2.85,0,1,0,1.77-3.95,3.16,3.16,0,0,0-.5.22A3.09,3.09,0,0,1,150.74,184Z"/><path class="cls-12" d="M168.41,129.87c-3.47-.37-5.35-3.67-7.44-4.18a23,23,0,0,1-3.41-1.11s-.72-2.5-1.79-1.65-2.49,19.59-1.11,19,1.39,1.62,1.39,1.62l12.87,11.33,10.78-19.09S171.87,130.25,168.41,129.87Z"/><polyline class="cls-4" points="63.61 63.15 63.61 62.87 63.88 62.87"/><line class="cls-23" x1="65.51" y1="62.87" x2="112.18" y2="62.87"/><polyline class="cls-4" points="112.99 62.87 113.26 62.87 113.26 63.15"/><line class="cls-24" x1="113.27" y1="64.81" x2="113.27" y2="94.87"/><polyline class="cls-4" points="113.26 95.7 113.26 95.98 112.99 95.98"/><line class="cls-23" x1="111.37" y1="95.98" x2="64.69" y2="95.98"/><polyline class="cls-4" points="63.88 95.98 63.61 95.98 63.61 95.7"/><line class="cls-24" x1="63.61" y1="94.05" x2="63.61" y2="63.98"/><circle class="cls-5" cx="88.44" cy="62.87" r="0.82"/><circle class="cls-5" cx="63.61" cy="79.43" r="0.82"/><circle class="cls-5" cx="88.44" cy="95.98" r="0.82"/><circle class="cls-5" cx="113.27" cy="79.43" r="0.82"/><rect class="cls-5" x="112.31" y="95.03" width="1.9" height="1.9"/><rect class="cls-5" x="112.31" y="61.93" width="1.9" height="1.9"/><rect class="cls-5" x="62.66" y="95.03" width="1.9" height="1.9"/><rect class="cls-5" x="62.66" y="61.93" width="1.9" height="1.9"/><rect class="cls-6" x="66.91" y="65.8" width="43.22" height="27.46"/><polygon class="cls-5" points="110.12 85.15 105.32 89.96 92.32 76.96 86.85 82.43 78.14 73.71 66.91 84.93 66.91 93.26 110.12 93.26 110.12 85.15"/><circle class="cls-5" cx="101.17" cy="73.6" r="3.05"/><path class="cls-11" d="M170.71,134.94a39.13,39.13,0,0,0-3.7,15.59"/><path class="cls-11" d="M161,139.2a24.66,24.66,0,0,0,3.86,9"/><path class="cls-11" d="M174.57,160.83s5,16.31,15.75,21.11"/><path class="cls-12" d="M187.64,131.3s-.47,3.56-3.89,3.81a15.52,15.52,0,0,0-1.52-2.54A47.73,47.73,0,0,1,187.64,131.3Z"/><path class="cls-6" d="M194.92,131.55s5.73.7,8.12-7,.51-13.46-8.95-16.25c-5.26-1.54-10.49-.3-12.4,3.67-1.62,3.41-.86,6.24-1.23,7.38s-4.29,2.37-4.29,3.25c0,.72,2.15,1.95,2.15,1.95l-.63,1.91.59.32s-1.11,4.3-.59,5.81c.36,1.11,10.06,1.57,10.81-1.18"/><path class="cls-4" d="M181.74,114.78s1.9.48,2.41,1.47"/><path class="cls-12" d="M182.07,119.14c-.08.56.05,1,.29,1.07s.5-.39.58-.94-.05-1-.29-1.07S182.16,118.59,182.07,119.14Z"/><path class="cls-4" d="M178.28,126.8s3.08,1.18,4.22.47"/><path class="cls-4" d="M179.36,118.7c-.23,1.24,0,2.32.62,2.43s1.22-.81,1.44-2,0-2.32-.61-2.43S179.59,117.47,179.36,118.7Z"/><path class="cls-12" d="M203.29,112.42a9.08,9.08,0,0,0-3.59-5.55,16.82,16.82,0,0,0-6.92-2.83,7,7,0,0,1,2.52,1.85A11.14,11.14,0,0,0,185,104.67c-5.61,2.34-4.91,8.4-4.91,8.4l.81-1.59s-.09,1.89.9,2.59a12.7,12.7,0,0,1,1.21-2.65s1.49,4.48,5.59,6a3.2,3.2,0,0,1-.06-2.2s2.27,4.91,1.61,7.31l.72,1.26s2.61-2.64,4.73-.44c1.22,1.27-2.33,6.07-2.84,6.07l2.15,3.15s5.36.76,8.45-5,2.33-8.27,2.33-8.27a7.21,7.21,0,0,1,1.11,2.21S207.67,115.19,203.29,112.42Z"/><path class="cls-6" d="M190.68,124.34s1.65-5.56,5.17-3.61,1,4.93-.25,6.07-2.21,3.22-3,3.22-1-1-1-1"/><line class="cls-4" x1="181.42" y1="119.09" x2="191.24" y2="121.13"/></g><rect class="cls-25" x="154.01" y="20.91" width="22.82" height="20.06"/><rect class="cls-26" x="154.01" y="20.91" width="22.82" height="20.06"/><rect class="cls-27" x="154.01" y="20.91" width="22.82" height="3.41"/><circle class="cls-28" cx="165.49" cy="31.7" r="4.7"/><polygon class="cls-29" points="163.29 28.6 168.8 31.78 163.29 34.97 163.29 28.6"/></svg>